<?xml version="1.0" encoding="UTF-8"?><svg id="Layer_1" xmlns="http://www.w3.org/2000/svg" viewBox="0 0 682 547.9"><defs><style>.cls-1{fill:#fff;}.cls-2{fill:#3f3d56;}.cls-3{fill:#e6e6e6;}.cls-4{fill:#e5e5e5;}.cls-5{fill:#0b8bff;}.cls-6{fill:#ccc;}</style></defs><path class="cls-3" d="M431.5,542l-14.6-6.1-10-73.2h-133.3l-10.9,72.9-13.1,6.5c-1.5,.8-2.2,2.6-1.4,4.2,.5,1.1,1.6,1.7,2.8,1.7h179.2c1.7,0,3.1-1.4,3.1-3.1,0-1.2-.7-2.4-1.9-2.9Z"/><path class="cls-6" d="M668.4,472.4H13.5c-7.2,0-12.9-5.8-12.9-13v-92.3H681.3v92.3c0,7.2-5.8,13-12.9,13Z"/><path class="cls-2" d="M682,410.7H0V15.6C0,7,7,0,15.6,0H666.4c8.6,0,15.6,7,15.6,15.6V410.7Z"/><path class="cls-1" d="M641.3,382.1H40.7c-6.7,0-12-5.4-12.1-12.1V40.7c0-6.7,5.4-12,12.1-12.1H641.3c6.7,0,12,5.4,12.1,12.1V370c0,6.7-5.4,12-12.1,12.1Z"/><rect class="cls-4" x="61" y="153.2" width="98.8" height="9.3"/><rect class="cls-4" x="61" y="175.7" width="98.8" height="9.3"/><rect class="cls-4" x="61" y="198.7" width="98.8" height="9.3"/><rect class="cls-4" x="61" y="221.7" width="98.8" height="9.3"/><rect class="cls-5" x="84.4" y="250.9" width="52" height="8.1"/><rect class="cls-4" x="312.6" y="210.8" width=".9" height="2.8"/><path class="cls-4" d="M313.5,274h-.9v-6h.9v6Zm0-12.1h-.9v-6h.9v6Zm0-12.1h-.9v-6h.9v6Zm0-12.1h-.9v-6h.9v6Zm0-12.1h-.9v-6h.9v6Z"/><rect class="cls-4" x="312.6" y="280" width=".9" height="2.8"/><rect class="cls-4" x="416" y="210.8" width=".9" height="2.8"/><path class="cls-4" d="M417,274h-.9v-6h.9v6Zm0-12.1h-.9v-6h.9v6Zm0-12.1h-.9v-6h.9v6Zm0-12.1h-.9v-6h.9v6Zm0-12.1h-.9v-6h.9v6Z"/><rect class="cls-4" x="416" y="280" width=".9" height="2.8"/><rect class="cls-4" x="468.2" y="155.3" width=".9" height="2.8"/><path class="cls-4" d="M469.2,274.2h-.9v-5.8h.9v5.8Zm0-11.6h-.9v-5.8h.9v5.8Zm0-11.6h-.9v-5.8h.9v5.8Zm0-11.6h-.9v-5.8h.9v5.8Zm0-11.6h-.9v-5.8h.9v5.8Zm0-11.6h-.9v-5.8h.9v5.8Zm0-11.6h-.9v-5.8h.9v5.8Zm0-11.6h-.9v-5.8h.9v5.8Zm0-11.6h-.9v-5.8h.9v5.8Zm0-11.6h-.9v-5.8h.9v5.8Z"/><rect class="cls-4" x="468.2" y="280" width=".9" height="2.8"/><rect class="cls-4" x="519.9" y="132.6" width=".9" height="2.8"/><path class="cls-4" d="M520.8,274.2h-.9v-5.8h.9v5.8Zm0-11.6h-.9v-5.8h.9v5.8Zm0-11.6h-.9v-5.8h.9v5.8Zm0-11.6h-.9v-5.8h.9v5.8Zm0-11.6h-.9v-5.8h.9v5.8Zm0-11.6h-.9v-5.8h.9v5.8Zm0-11.6h-.9v-5.8h.9v5.8Zm0-11.6h-.9v-5.8h.9v5.8Zm0-11.6h-.9v-5.8h.9v5.8Zm0-11.6h-.9v-5.8h.9v5.8Zm0-11.6h-.9v-5.8h.9v5.8Zm0-11.6h-.9v-5.8h.9v5.8Z"/><rect class="cls-4" x="519.9" y="280" width=".9" height="2.8"/><rect class="cls-4" x="364.5" y="172.8" width=".9" height="2.8"/><path class="cls-4" d="M365.5,274.5h-.9v-5.5h.9v5.5Zm0-11h-.9v-5.5h.9v5.5Zm0-11h-.9v-5.5h.9v5.5Zm0-11h-.9v-5.5h.9v5.5Zm0-11h-.9v-5.5h.9v5.5Zm0-11h-.9v-5.5h.9v5.5Zm0-11h-.9v-5.5h.9v5.5Zm0-11h-.9v-5.5h.9v5.5Zm0-11h-.9v-5.5h.9v5.5Z"/><rect class="cls-4" x="364.5" y="280" width=".9" height="2.8"/><path class="cls-2" d="M573.2,284.2H260.4c-.5,0-1-.4-1-1V133.3c0-.5,.4-1,1-1s1,.4,1,1v148.9h311.8c.5,0,1,.4,1,1s-.4,1-1,1Z"/><polygon class="cls-2" points="416.9 212.1 364.9 173.1 313.6 211.5 312.5 210 364.9 170.7 416.7 209.4 468.1 153.2 468.3 153.1 520.2 132.2 520.9 134 469.3 154.8 416.9 212.1"/><circle class="cls-5" cx="313" cy="210.8" r="5.9"/><circle class="cls-5" cx="364.9" cy="172.6" r="5.9"/><circle class="cls-5" cx="416.8" cy="210.8" r="5.9"/><circle class="cls-5" cx="468.7" cy="154" r="5.9"/><circle class="cls-5" cx="520.6" cy="132.4" r="5.9"/><rect class="cls-4" x="188.7" y="28.7" width="2" height="353.4"/></svg>